# xmcd
#
# Track frame offsets:
#	150
#	11140
#	23427
#	37845
#	55450
#	66070
#	79495
#	94397
#	110982
#	124905
#	139537
#
# Disc length: 2098 seconds
#
# Revision: 9
# Processed by: cddbd v1.5.2PL0 Copyright (c) Steve Scherf et al.
# Submitted via: EasyCDDAExtractor 16.0.6.1
#
DISCID=9608300b
DTITLE=Linda Ronstadt - C-068 Greatest Hits VolumeTwo
DYEAR=1980
DGENRE=Country
TTITLE0=It's So Easy
TTITLE1=I Can't Let Go
TTITLE2=Hurt So Bad
TTITLE3=Blue Bayou
TTITLE4=How Do I Make You
TTITLE5=Back In The U.S.A.
TTITLE6=Ooh Baby Baby
TTITLE7=Poor Poor Pitiful Me
TTITLE8=Tumbling Dice
TTITLE9=Just One Look
TTITLE10=Someone To Lay Down Beside Me
EXTD=YEAR: 1980
EXTT0=(Buddy Holly and Norman Petty]\nFrom"Simple Dreams", rec. May 1977
EXTT1=(Chip Taylor and Al Gorgoni)\\From "Mad Love", rec. November 1979
EXTT2=(Teddy Randazzo, Bobby Wilding and Bobby Hart]\nFrom "Mad Love", rec. Nove
EXTT2=mber 1979
EXTT3=(Roy Orbison - Joe Melson]\nFrom "Simple Dreams", rec. May 1977
EXTT4=(Billy Steinberg]\nFrom "Mad Love", rec. November 1979
EXTT5=(Chuck Berry]\nFrom "Living in the U.S.A.", rec. May 1978
EXTT6=(William Robinson and Warren Moore]\nFrom "Living in the U.S.A.", rec. May
EXTT6=1978
EXTT7=(Warren Zevon]\nFrom "Simple Dreams", rec.May 1977
EXTT8=(Mick Jagger and Keith Richards]\nFrom "Simple Dreams", rec.1977
EXTT9=(G. Carroll and D. Payne]\nFrom "Living in the U.S.A.", rec.May 1978
EXTT10=(Karla Bonoff)\\From "Hasten Down the Wind",rec. March 1976
PLAYORDER=
